<mxfile host="65bd71144e">
    <diagram id="rRoWfzJFK4uJXbPDyryT" name="Page-1">
        <mxGraphModel dx="333" dy="342" grid="1" gridSize="10" guides="1" tooltips="1" connect="1" arrows="1" fold="1" page="1" pageScale="1" pageWidth="850" pageHeight="1100" math="0" shadow="0">
            <root>
                <mxCell id="0"/>
                <mxCell id="1" parent="0"/>
                <mxCell id="21" style="edgeStyle=none;html=1;endArrow=none;endFill=0;fontSize=10;" parent="1" source="2" target="20" edge="1">
                    <mxGeometry relative="1" as="geometry"/>
                </mxCell>
                <mxCell id="22" style="edgeStyle=none;html=1;endArrow=none;endFill=0;fontSize=10;" parent="1" source="2" target="18" edge="1">
                    <mxGeometry relative="1" as="geometry"/>
                </mxCell>
                <mxCell id="23" style="edgeStyle=none;html=1;endArrow=none;endFill=0;fontSize=10;" parent="1" source="2" target="13" edge="1">
                    <mxGeometry relative="1" as="geometry"/>
                </mxCell>
                <mxCell id="2" value="User" style="whiteSpace=wrap;html=1;align=center;fontSize=10;" parent="1" vertex="1">
                    <mxGeometry x="120" y="470" width="80" height="40" as="geometry"/>
                </mxCell>
                <mxCell id="33" style="edgeStyle=none;html=1;endArrow=none;endFill=0;fontSize=10;" parent="1" source="3" target="32" edge="1">
                    <mxGeometry relative="1" as="geometry"/>
                </mxCell>
                <mxCell id="42" style="edgeStyle=none;html=1;fontSize=10;endArrow=none;endFill=0;" parent="1" source="3" target="34" edge="1">
                    <mxGeometry relative="1" as="geometry"/>
                </mxCell>
                <mxCell id="43" style="edgeStyle=none;html=1;fontSize=10;endArrow=none;endFill=0;" parent="1" source="3" target="35" edge="1">
                    <mxGeometry relative="1" as="geometry"/>
                </mxCell>
                <mxCell id="3" value="Comment" style="whiteSpace=wrap;html=1;align=center;fontSize=10;" parent="1" vertex="1">
                    <mxGeometry x="520" y="550" width="80" height="40" as="geometry"/>
                </mxCell>
                <mxCell id="25" style="edgeStyle=none;html=1;endArrow=none;endFill=0;fontSize=10;" parent="1" source="4" target="24" edge="1">
                    <mxGeometry relative="1" as="geometry"/>
                </mxCell>
                <mxCell id="27" style="edgeStyle=none;html=1;endArrow=none;endFill=0;fontSize=10;" parent="1" source="4" target="26" edge="1">
                    <mxGeometry relative="1" as="geometry"/>
                </mxCell>
                <mxCell id="4" value="DangerArea" style="whiteSpace=wrap;html=1;align=center;fontSize=10;" parent="1" vertex="1">
                    <mxGeometry x="1320" y="790" width="80" height="40" as="geometry"/>
                </mxCell>
                <mxCell id="54" style="edgeStyle=none;html=1;fontSize=10;endArrow=none;endFill=0;" parent="1" source="5" target="53" edge="1">
                    <mxGeometry relative="1" as="geometry"/>
                </mxCell>
                <mxCell id="56" style="edgeStyle=none;html=1;fontSize=10;endArrow=none;endFill=0;" parent="1" source="5" target="55" edge="1">
                    <mxGeometry relative="1" as="geometry"/>
                </mxCell>
                <mxCell id="62" style="edgeStyle=none;html=1;fontSize=10;endArrow=none;endFill=0;" parent="1" source="5" target="59" edge="1">
                    <mxGeometry relative="1" as="geometry"/>
                </mxCell>
                <mxCell id="5" value="District" style="whiteSpace=wrap;html=1;align=center;fontSize=10;" parent="1" vertex="1">
                    <mxGeometry x="920" y="550" width="80" height="40" as="geometry"/>
                </mxCell>
                <mxCell id="48" style="edgeStyle=none;html=1;fontSize=10;endArrow=none;endFill=0;" parent="1" source="6" target="47" edge="1">
                    <mxGeometry relative="1" as="geometry"/>
                </mxCell>
                <mxCell id="6" value="Rating" style="whiteSpace=wrap;html=1;align=center;fontSize=10;" parent="1" vertex="1">
                    <mxGeometry x="520" y="390" width="80" height="40" as="geometry"/>
                </mxCell>
                <mxCell id="107" style="edgeStyle=none;html=1;fontSize=10;endArrow=none;endFill=0;" parent="1" source="7" target="103" edge="1">
                    <mxGeometry relative="1" as="geometry"/>
                </mxCell>
                <mxCell id="109" style="edgeStyle=none;html=1;fontSize=10;endArrow=none;endFill=0;" parent="1" source="7" target="108" edge="1">
                    <mxGeometry relative="1" as="geometry"/>
                </mxCell>
                <mxCell id="7" value="Insident" style="whiteSpace=wrap;html=1;align=center;fontSize=10;" parent="1" vertex="1">
                    <mxGeometry x="1320" y="390" width="80" height="40" as="geometry"/>
                </mxCell>
                <mxCell id="68" style="edgeStyle=none;html=1;fontSize=10;endArrow=none;endFill=0;" parent="1" source="8" target="65" edge="1">
                    <mxGeometry relative="1" as="geometry"/>
                </mxCell>
                <mxCell id="70" style="edgeStyle=none;html=1;fontSize=10;endArrow=none;endFill=0;" parent="1" source="8" target="69" edge="1">
                    <mxGeometry relative="1" as="geometry"/>
                </mxCell>
                <mxCell id="72" style="edgeStyle=none;html=1;fontSize=10;endArrow=none;endFill=0;" parent="1" source="8" target="71" edge="1">
                    <mxGeometry relative="1" as="geometry"/>
                </mxCell>
                <mxCell id="8" value="Station" style="whiteSpace=wrap;html=1;align=center;fontSize=10;" parent="1" vertex="1">
                    <mxGeometry x="520" y="790" width="80" height="40" as="geometry"/>
                </mxCell>
                <mxCell id="85" style="edgeStyle=none;html=1;fontSize=10;endArrow=none;endFill=0;startArrow=none;" parent="1" source="75" target="73" edge="1">
                    <mxGeometry relative="1" as="geometry"/>
                </mxCell>
                <mxCell id="86" style="edgeStyle=none;html=1;fontSize=10;endArrow=none;endFill=0;" parent="1" source="10" target="80" edge="1">
                    <mxGeometry relative="1" as="geometry"/>
                </mxCell>
                <mxCell id="87" style="edgeStyle=none;html=1;fontSize=10;endArrow=none;endFill=0;" parent="1" source="10" target="84" edge="1">
                    <mxGeometry relative="1" as="geometry"/>
                </mxCell>
                <mxCell id="88" style="edgeStyle=none;html=1;fontSize=10;endArrow=none;endFill=0;" parent="1" source="10" target="83" edge="1">
                    <mxGeometry relative="1" as="geometry"/>
                </mxCell>
                <mxCell id="128" style="edgeStyle=none;html=1;fontSize=10;endArrow=none;endFill=0;" parent="1" source="10" target="127" edge="1">
                    <mxGeometry relative="1" as="geometry"/>
                </mxCell>
                <mxCell id="10" value="Street" style="whiteSpace=wrap;html=1;align=center;fontSize=10;" parent="1" vertex="1">
                    <mxGeometry x="1320" y="550" width="80" height="40" as="geometry"/>
                </mxCell>
                <mxCell id="124" style="edgeStyle=none;html=1;fontSize=10;endArrow=none;endFill=0;" parent="1" source="11" target="121" edge="1">
                    <mxGeometry relative="1" as="geometry"/>
                </mxCell>
                <mxCell id="125" style="edgeStyle=none;html=1;fontSize=10;endArrow=none;endFill=0;" parent="1" source="11" target="122" edge="1">
                    <mxGeometry relative="1" as="geometry"/>
                </mxCell>
                <mxCell id="126" style="edgeStyle=none;html=1;fontSize=10;endArrow=none;endFill=0;" parent="1" source="11" target="123" edge="1">
                    <mxGeometry relative="1" as="geometry"/>
                </mxCell>
                <mxCell id="151" style="edgeStyle=none;html=1;endArrow=none;endFill=0;" edge="1" parent="1" source="11" target="150">
                    <mxGeometry relative="1" as="geometry"/>
                </mxCell>
                <mxCell id="11" value="Criminal" style="whiteSpace=wrap;html=1;align=center;fontSize=10;" parent="1" vertex="1">
                    <mxGeometry x="1320" y="150" width="80" height="40" as="geometry"/>
                </mxCell>
                <mxCell id="15" style="edgeStyle=none;html=1;endArrow=ERmandOne;endFill=0;fontSize=10;" parent="1" source="12" target="2" edge="1">
                    <mxGeometry relative="1" as="geometry"/>
                </mxCell>
                <mxCell id="16" style="edgeStyle=none;html=1;endArrow=ERzeroToMany;endFill=0;fontSize=10;" parent="1" source="12" target="3" edge="1">
                    <mxGeometry relative="1" as="geometry"/>
                </mxCell>
                <mxCell id="12" value="Post" style="shape=rhombus;perimeter=rhombusPerimeter;whiteSpace=wrap;html=1;align=center;fontSize=10;" parent="1" vertex="1">
                    <mxGeometry x="320" y="550" width="80" height="40" as="geometry"/>
                </mxCell>
                <mxCell id="13" value="ID" style="ellipse;whiteSpace=wrap;html=1;align=center;fontStyle=4;fontSize=10;" parent="1" vertex="1">
                    <mxGeometry y="520" width="80" height="30" as="geometry"/>
                </mxCell>
                <mxCell id="18" value="NickName" style="ellipse;whiteSpace=wrap;html=1;align=center;fontSize=10;" parent="1" vertex="1">
                    <mxGeometry y="475" width="80" height="30" as="geometry"/>
                </mxCell>
                <mxCell id="20" value="Password" style="ellipse;whiteSpace=wrap;html=1;align=center;fontSize=10;" parent="1" vertex="1">
                    <mxGeometry y="430" width="80" height="30" as="geometry"/>
                </mxCell>
                <mxCell id="30" style="edgeStyle=none;html=1;endArrow=none;endFill=0;fontSize=10;" parent="1" source="24" target="28" edge="1">
                    <mxGeometry relative="1" as="geometry"/>
                </mxCell>
                <mxCell id="31" style="edgeStyle=none;html=1;endArrow=none;endFill=0;fontSize=10;" parent="1" source="24" target="29" edge="1">
                    <mxGeometry relative="1" as="geometry"/>
                </mxCell>
                <mxCell id="24" value="Center&lt;br style=&quot;font-size: 10px;&quot;&gt;Location" style="ellipse;whiteSpace=wrap;html=1;align=center;fontSize=10;" parent="1" vertex="1">
                    <mxGeometry x="1440" y="795" width="80" height="30" as="geometry"/>
                </mxCell>
                <mxCell id="26" value="ID" style="ellipse;whiteSpace=wrap;html=1;align=center;fontStyle=4;fontSize=10;" parent="1" vertex="1">
                    <mxGeometry x="1320" y="870" width="80" height="30" as="geometry"/>
                </mxCell>
                <mxCell id="28" value="Latitude" style="ellipse;whiteSpace=wrap;html=1;align=center;fontSize=10;" parent="1" vertex="1">
                    <mxGeometry x="1560" y="820" width="80" height="30" as="geometry"/>
                </mxCell>
                <mxCell id="29" value="Longitude" style="ellipse;whiteSpace=wrap;html=1;align=center;fontSize=10;" parent="1" vertex="1">
                    <mxGeometry x="1560" y="770" width="80" height="30" as="geometry"/>
                </mxCell>
                <mxCell id="32" value="ID" style="ellipse;whiteSpace=wrap;html=1;align=center;fontStyle=4;fontSize=10;" parent="1" vertex="1">
                    <mxGeometry x="570" y="480" width="80" height="30" as="geometry"/>
                </mxCell>
                <mxCell id="39" style="edgeStyle=none;html=1;fontSize=10;endArrow=none;endFill=0;" parent="1" source="34" target="37" edge="1">
                    <mxGeometry relative="1" as="geometry"/>
                </mxCell>
                <mxCell id="40" style="edgeStyle=none;html=1;fontSize=10;endArrow=none;endFill=0;" parent="1" source="34" target="36" edge="1">
                    <mxGeometry relative="1" as="geometry"/>
                </mxCell>
                <mxCell id="41" style="edgeStyle=none;html=1;fontSize=10;endArrow=none;endFill=0;" parent="1" source="34" target="38" edge="1">
                    <mxGeometry relative="1" as="geometry"/>
                </mxCell>
                <mxCell id="34" value="Date" style="ellipse;whiteSpace=wrap;html=1;align=center;fontSize=10;" parent="1" vertex="1">
                    <mxGeometry x="520" y="630" width="80" height="30" as="geometry"/>
                </mxCell>
                <mxCell id="35" value="Content" style="ellipse;whiteSpace=wrap;html=1;align=center;fontSize=10;" parent="1" vertex="1">
                    <mxGeometry x="470" y="480" width="80" height="30" as="geometry"/>
                </mxCell>
                <mxCell id="36" value="Month" style="ellipse;whiteSpace=wrap;html=1;align=center;fontSize=10;" parent="1" vertex="1">
                    <mxGeometry x="520" y="720" width="80" height="30" as="geometry"/>
                </mxCell>
                <mxCell id="37" value="Day" style="ellipse;whiteSpace=wrap;html=1;align=center;fontSize=10;" parent="1" vertex="1">
                    <mxGeometry x="460" y="680" width="80" height="30" as="geometry"/>
                </mxCell>
                <mxCell id="38" value="Year" style="ellipse;whiteSpace=wrap;html=1;align=center;fontSize=10;" parent="1" vertex="1">
                    <mxGeometry x="580" y="680" width="80" height="30" as="geometry"/>
                </mxCell>
                <mxCell id="45" style="edgeStyle=none;html=1;fontSize=10;endArrow=ERmandOne;endFill=0;" parent="1" source="44" target="2" edge="1">
                    <mxGeometry relative="1" as="geometry">
                        <mxPoint x="25.294117647058783" y="367.64705882352973" as="sourcePoint"/>
                    </mxGeometry>
                </mxCell>
                <mxCell id="46" style="edgeStyle=none;html=1;fontSize=10;endArrow=ERzeroToMany;endFill=0;" parent="1" source="44" target="6" edge="1">
                    <mxGeometry relative="1" as="geometry"/>
                </mxCell>
                <mxCell id="44" value="Give" style="shape=rhombus;perimeter=rhombusPerimeter;whiteSpace=wrap;html=1;align=center;fontSize=10;" parent="1" vertex="1">
                    <mxGeometry x="320" y="390" width="80" height="40" as="geometry"/>
                </mxCell>
                <mxCell id="47" value="Value" style="ellipse;whiteSpace=wrap;html=1;align=center;fontSize=10;" parent="1" vertex="1">
                    <mxGeometry x="520" y="320" width="80" height="30" as="geometry"/>
                </mxCell>
                <mxCell id="51" style="edgeStyle=none;html=1;fontSize=10;endArrow=ERoneToMany;endFill=0;" parent="1" source="49" target="5" edge="1">
                    <mxGeometry relative="1" as="geometry"/>
                </mxCell>
                <mxCell id="52" style="edgeStyle=none;html=1;fontSize=10;endArrow=ERzeroToMany;endFill=0;" parent="1" source="49" target="7" edge="1">
                    <mxGeometry relative="1" as="geometry"/>
                </mxCell>
                <mxCell id="49" value="Belong" style="shape=rhombus;perimeter=rhombusPerimeter;whiteSpace=wrap;html=1;align=center;fontSize=10;" parent="1" vertex="1">
                    <mxGeometry x="1120" y="390" width="80" height="40" as="geometry"/>
                </mxCell>
                <mxCell id="53" value="ID" style="ellipse;whiteSpace=wrap;html=1;align=center;fontStyle=4;fontSize=10;" parent="1" vertex="1">
                    <mxGeometry x="870" y="450" width="80" height="30" as="geometry"/>
                </mxCell>
                <mxCell id="55" value="Name" style="ellipse;whiteSpace=wrap;html=1;align=center;fontSize=10;" parent="1" vertex="1">
                    <mxGeometry x="970" y="450" width="80" height="30" as="geometry"/>
                </mxCell>
                <mxCell id="57" style="edgeStyle=none;html=1;endArrow=none;endFill=0;fontSize=10;" parent="1" source="59" target="60" edge="1">
                    <mxGeometry relative="1" as="geometry"/>
                </mxCell>
                <mxCell id="58" style="edgeStyle=none;html=1;endArrow=none;endFill=0;fontSize=10;" parent="1" source="59" target="61" edge="1">
                    <mxGeometry relative="1" as="geometry"/>
                </mxCell>
                <mxCell id="59" value="Center&lt;br style=&quot;font-size: 10px;&quot;&gt;Location" style="ellipse;whiteSpace=wrap;html=1;align=center;fontSize=10;" parent="1" vertex="1">
                    <mxGeometry x="920" y="650" width="80" height="30" as="geometry"/>
                </mxCell>
                <mxCell id="60" value="Latitude" style="ellipse;whiteSpace=wrap;html=1;align=center;fontSize=10;" parent="1" vertex="1">
                    <mxGeometry x="870" y="720" width="80" height="30" as="geometry"/>
                </mxCell>
                <mxCell id="61" value="Longitude" style="ellipse;whiteSpace=wrap;html=1;align=center;fontSize=10;" parent="1" vertex="1">
                    <mxGeometry x="970" y="720" width="80" height="30" as="geometry"/>
                </mxCell>
                <mxCell id="63" style="edgeStyle=none;html=1;endArrow=none;endFill=0;fontSize=10;" parent="1" source="65" target="66" edge="1">
                    <mxGeometry relative="1" as="geometry"/>
                </mxCell>
                <mxCell id="64" style="edgeStyle=none;html=1;endArrow=none;endFill=0;fontSize=10;" parent="1" source="65" target="67" edge="1">
                    <mxGeometry relative="1" as="geometry"/>
                </mxCell>
                <mxCell id="65" value="Location" style="ellipse;whiteSpace=wrap;html=1;align=center;fontSize=10;" parent="1" vertex="1">
                    <mxGeometry x="520" y="870" width="80" height="30" as="geometry"/>
                </mxCell>
                <mxCell id="66" value="Latitude" style="ellipse;whiteSpace=wrap;html=1;align=center;fontSize=10;" parent="1" vertex="1">
                    <mxGeometry x="570" y="920" width="80" height="30" as="geometry"/>
                </mxCell>
                <mxCell id="67" value="Longitude" style="ellipse;whiteSpace=wrap;html=1;align=center;fontSize=10;" parent="1" vertex="1">
                    <mxGeometry x="470" y="920" width="80" height="30" as="geometry"/>
                </mxCell>
                <mxCell id="69" value="Type" style="ellipse;whiteSpace=wrap;html=1;align=center;fontSize=10;" parent="1" vertex="1">
                    <mxGeometry x="420" y="870" width="80" height="30" as="geometry"/>
                </mxCell>
                <mxCell id="71" value="ID" style="ellipse;whiteSpace=wrap;html=1;align=center;fontStyle=4;fontSize=10;" parent="1" vertex="1">
                    <mxGeometry x="620" y="870" width="80" height="30" as="geometry"/>
                </mxCell>
                <mxCell id="76" style="edgeStyle=none;html=1;fontSize=10;endArrow=none;endFill=0;" parent="1" source="73" target="74" edge="1">
                    <mxGeometry relative="1" as="geometry"/>
                </mxCell>
                <mxCell id="77" style="edgeStyle=none;html=1;fontSize=10;endArrow=none;endFill=0;" parent="1" source="73" target="75" edge="1">
                    <mxGeometry relative="1" as="geometry"/>
                </mxCell>
                <mxCell id="73" value="Start&lt;br&gt;Location" style="ellipse;whiteSpace=wrap;html=1;align=center;fontSize=10;" parent="1" vertex="1">
                    <mxGeometry x="1440" y="600" width="80" height="30" as="geometry"/>
                </mxCell>
                <mxCell id="74" value="Latitude" style="ellipse;whiteSpace=wrap;html=1;align=center;fontSize=10;" parent="1" vertex="1">
                    <mxGeometry x="1560" y="620" width="80" height="30" as="geometry"/>
                </mxCell>
                <mxCell id="78" style="edgeStyle=none;html=1;fontSize=10;endArrow=none;endFill=0;" parent="1" source="80" target="81" edge="1">
                    <mxGeometry relative="1" as="geometry"/>
                </mxCell>
                <mxCell id="79" style="edgeStyle=none;html=1;fontSize=10;endArrow=none;endFill=0;" parent="1" source="80" target="82" edge="1">
                    <mxGeometry relative="1" as="geometry"/>
                </mxCell>
                <mxCell id="80" value="End&lt;br&gt;Location" style="ellipse;whiteSpace=wrap;html=1;align=center;fontSize=10;" parent="1" vertex="1">
                    <mxGeometry x="1320" y="630" width="80" height="30" as="geometry"/>
                </mxCell>
                <mxCell id="81" value="Latitude" style="ellipse;whiteSpace=wrap;html=1;align=center;fontSize=10;" parent="1" vertex="1">
                    <mxGeometry x="1370" y="680" width="80" height="30" as="geometry"/>
                </mxCell>
                <mxCell id="82" value="Longitude" style="ellipse;whiteSpace=wrap;html=1;align=center;fontSize=10;" parent="1" vertex="1">
                    <mxGeometry x="1270" y="680" width="80" height="30" as="geometry"/>
                </mxCell>
                <mxCell id="83" value="ID" style="ellipse;whiteSpace=wrap;html=1;align=center;fontStyle=4;fontSize=10;" parent="1" vertex="1">
                    <mxGeometry x="1440" y="510" width="80" height="30" as="geometry"/>
                </mxCell>
                <mxCell id="84" value="Name" style="ellipse;whiteSpace=wrap;html=1;align=center;fontSize=10;" parent="1" vertex="1">
                    <mxGeometry x="1320" y="480" width="80" height="30" as="geometry"/>
                </mxCell>
                <mxCell id="90" style="edgeStyle=none;html=1;fontSize=10;endArrow=ERzeroToMany;endFill=0;" parent="1" source="89" target="6" edge="1">
                    <mxGeometry relative="1" as="geometry"/>
                </mxCell>
                <mxCell id="91" style="edgeStyle=none;html=1;fontSize=10;endArrow=ERmandOne;endFill=0;" parent="1" source="89" target="5" edge="1">
                    <mxGeometry relative="1" as="geometry">
                        <mxPoint x="1270" y="190" as="sourcePoint"/>
                    </mxGeometry>
                </mxCell>
                <mxCell id="89" value="Have" style="shape=rhombus;perimeter=rhombusPerimeter;whiteSpace=wrap;html=1;align=center;fontSize=10;" parent="1" vertex="1">
                    <mxGeometry x="720" y="390" width="80" height="40" as="geometry"/>
                </mxCell>
                <mxCell id="92" style="edgeStyle=none;html=1;endArrow=none;endFill=0;fontSize=10;" parent="1" source="94" target="95" edge="1">
                    <mxGeometry relative="1" as="geometry"/>
                </mxCell>
                <mxCell id="93" style="edgeStyle=none;html=1;endArrow=none;endFill=0;fontSize=10;" parent="1" source="94" target="96" edge="1">
                    <mxGeometry relative="1" as="geometry"/>
                </mxCell>
                <mxCell id="97" style="edgeStyle=none;html=1;fontSize=10;endArrow=none;endFill=0;" parent="1" source="94" target="7" edge="1">
                    <mxGeometry relative="1" as="geometry"/>
                </mxCell>
                <mxCell id="94" value="Location" style="ellipse;whiteSpace=wrap;html=1;align=center;fontSize=10;" parent="1" vertex="1">
                    <mxGeometry x="1440" y="455" width="80" height="30" as="geometry"/>
                </mxCell>
                <mxCell id="95" value="Latitude" style="ellipse;whiteSpace=wrap;html=1;align=center;fontSize=10;" parent="1" vertex="1">
                    <mxGeometry x="1560" y="435" width="80" height="30" as="geometry"/>
                </mxCell>
                <mxCell id="96" value="Longitude" style="ellipse;whiteSpace=wrap;html=1;align=center;fontSize=10;" parent="1" vertex="1">
                    <mxGeometry x="1560" y="475" width="80" height="30" as="geometry"/>
                </mxCell>
                <mxCell id="98" value="ID" style="ellipse;whiteSpace=wrap;html=1;align=center;fontStyle=4;fontSize=10;" parent="1" vertex="1">
                    <mxGeometry x="1440" y="415" width="80" height="30" as="geometry"/>
                </mxCell>
                <mxCell id="99" style="edgeStyle=none;html=1;fontSize=10;endArrow=none;endFill=0;" parent="1" source="7" target="98" edge="1">
                    <mxGeometry relative="1" as="geometry">
                        <mxPoint x="1940" y="-330" as="sourcePoint"/>
                        <mxPoint x="1980" y="-330" as="targetPoint"/>
                    </mxGeometry>
                </mxCell>
                <mxCell id="100" style="edgeStyle=none;html=1;fontSize=10;endArrow=none;endFill=0;" parent="1" source="103" target="105" edge="1">
                    <mxGeometry relative="1" as="geometry"/>
                </mxCell>
                <mxCell id="101" style="edgeStyle=none;html=1;fontSize=10;endArrow=none;endFill=0;" parent="1" source="103" target="104" edge="1">
                    <mxGeometry relative="1" as="geometry"/>
                </mxCell>
                <mxCell id="102" style="edgeStyle=none;html=1;fontSize=10;endArrow=none;endFill=0;" parent="1" source="103" target="106" edge="1">
                    <mxGeometry relative="1" as="geometry"/>
                </mxCell>
                <mxCell id="103" value="Date" style="ellipse;whiteSpace=wrap;html=1;align=center;fontSize=10;" parent="1" vertex="1">
                    <mxGeometry x="1440" y="335" width="80" height="30" as="geometry"/>
                </mxCell>
                <mxCell id="104" value="Month" style="ellipse;whiteSpace=wrap;html=1;align=center;fontSize=10;" parent="1" vertex="1">
                    <mxGeometry x="1560" y="335" width="80" height="30" as="geometry"/>
                </mxCell>
                <mxCell id="105" value="Day" style="ellipse;whiteSpace=wrap;html=1;align=center;fontSize=10;" parent="1" vertex="1">
                    <mxGeometry x="1560" y="295" width="80" height="30" as="geometry"/>
                </mxCell>
                <mxCell id="106" value="Year" style="ellipse;whiteSpace=wrap;html=1;align=center;fontSize=10;" parent="1" vertex="1">
                    <mxGeometry x="1560" y="375" width="80" height="30" as="geometry"/>
                </mxCell>
                <mxCell id="108" value="Description" style="ellipse;whiteSpace=wrap;html=1;align=center;fontSize=10;" parent="1" vertex="1">
                    <mxGeometry x="1440" y="375" width="80" height="30" as="geometry"/>
                </mxCell>
                <mxCell id="111" style="edgeStyle=none;html=1;fontSize=10;endArrow=ERmandOne;endFill=0;" parent="1" source="110" target="5" edge="1">
                    <mxGeometry relative="1" as="geometry"/>
                </mxCell>
                <mxCell id="112" style="edgeStyle=none;html=1;fontSize=10;endArrow=ERzeroToMany;endFill=0;" parent="1" source="110" target="8" edge="1">
                    <mxGeometry relative="1" as="geometry"/>
                </mxCell>
                <mxCell id="110" value="Have" style="shape=rhombus;perimeter=rhombusPerimeter;whiteSpace=wrap;html=1;align=center;fontSize=10;" parent="1" vertex="1">
                    <mxGeometry x="720" y="790" width="80" height="40" as="geometry"/>
                </mxCell>
                <mxCell id="114" style="edgeStyle=none;html=1;fontSize=10;endArrow=ERoneToMany;endFill=0;" parent="1" source="113" target="5" edge="1">
                    <mxGeometry relative="1" as="geometry"/>
                </mxCell>
                <mxCell id="115" style="edgeStyle=none;html=1;fontSize=10;endArrow=ERoneToMany;endFill=0;" parent="1" source="113" target="10" edge="1">
                    <mxGeometry relative="1" as="geometry"/>
                </mxCell>
                <mxCell id="113" value="Belong" style="shape=rhombus;perimeter=rhombusPerimeter;whiteSpace=wrap;html=1;align=center;fontSize=10;" parent="1" vertex="1">
                    <mxGeometry x="1120" y="550" width="80" height="40" as="geometry"/>
                </mxCell>
                <mxCell id="116" value="" style="edgeStyle=none;html=1;fontSize=10;endArrow=none;endFill=0;" parent="1" source="10" target="73" edge="1">
                    <mxGeometry relative="1" as="geometry">
                        <mxPoint x="1450" y="840" as="sourcePoint"/>
                        <mxPoint x="1163.2820117735137" y="768.3205029433784" as="targetPoint"/>
                    </mxGeometry>
                </mxCell>
                <mxCell id="75" value="Longitude" style="ellipse;whiteSpace=wrap;html=1;align=center;fontSize=10;" parent="1" vertex="1">
                    <mxGeometry x="1560" y="580" width="80" height="30" as="geometry"/>
                </mxCell>
                <mxCell id="118" style="edgeStyle=none;html=1;fontSize=10;endArrow=ERzeroToMany;endFill=0;" parent="1" source="117" target="4" edge="1">
                    <mxGeometry relative="1" as="geometry"/>
                </mxCell>
                <mxCell id="119" style="edgeStyle=none;html=1;fontSize=10;endArrow=ERoneToMany;endFill=0;" parent="1" source="117" target="5" edge="1">
                    <mxGeometry relative="1" as="geometry"/>
                </mxCell>
                <mxCell id="117" value="Belong" style="shape=rhombus;perimeter=rhombusPerimeter;whiteSpace=wrap;html=1;align=center;fontSize=10;" parent="1" vertex="1">
                    <mxGeometry x="1120" y="790" width="80" height="40" as="geometry"/>
                </mxCell>
                <mxCell id="121" value="Name" style="ellipse;whiteSpace=wrap;html=1;align=center;fontSize=10;" parent="1" vertex="1">
                    <mxGeometry x="1440" y="155" width="80" height="30" as="geometry"/>
                </mxCell>
                <mxCell id="122" value="ID" style="ellipse;whiteSpace=wrap;html=1;align=center;fontStyle=4;fontSize=10;" parent="1" vertex="1">
                    <mxGeometry x="1320" y="80" width="80" height="30" as="geometry"/>
                </mxCell>
                <mxCell id="123" value="Description" style="ellipse;whiteSpace=wrap;html=1;align=center;fontSize=10;" parent="1" vertex="1">
                    <mxGeometry x="1200" y="155" width="80" height="30" as="geometry"/>
                </mxCell>
                <mxCell id="127" value="Security" style="ellipse;whiteSpace=wrap;html=1;align=center;fontSize=10;" parent="1" vertex="1">
                    <mxGeometry x="1440" y="555" width="80" height="30" as="geometry"/>
                </mxCell>
                <mxCell id="131" style="edgeStyle=none;html=1;fontSize=10;endArrow=ERzeroToMany;endFill=0;" parent="1" source="130" target="3" edge="1">
                    <mxGeometry relative="1" as="geometry"/>
                </mxCell>
                <mxCell id="132" style="edgeStyle=none;html=1;fontSize=10;endArrow=ERmandOne;endFill=0;" parent="1" source="130" target="5" edge="1">
                    <mxGeometry relative="1" as="geometry"/>
                </mxCell>
                <mxCell id="130" value="Have" style="shape=rhombus;perimeter=rhombusPerimeter;whiteSpace=wrap;html=1;align=center;fontSize=10;" parent="1" vertex="1">
                    <mxGeometry x="720" y="550" width="80" height="40" as="geometry"/>
                </mxCell>
                <mxCell id="135" style="edgeStyle=none;html=1;fontSize=10;endArrow=ERzeroToMany;endFill=0;" parent="1" source="134" target="7" edge="1">
                    <mxGeometry relative="1" as="geometry"/>
                </mxCell>
                <mxCell id="136" style="edgeStyle=none;html=1;fontSize=10;endArrow=ERzeroToMany;endFill=0;" parent="1" source="134" target="11" edge="1">
                    <mxGeometry relative="1" as="geometry"/>
                </mxCell>
                <mxCell id="134" value="Involved" style="shape=rhombus;perimeter=rhombusPerimeter;whiteSpace=wrap;html=1;align=center;fontSize=10;" parent="1" vertex="1">
                    <mxGeometry x="1320" y="270" width="80" height="40" as="geometry"/>
                </mxCell>
                <mxCell id="141" value="1:N" style="text;html=1;strokeColor=none;fillColor=none;align=center;verticalAlign=middle;whiteSpace=wrap;rounded=0;fontSize=10;" parent="1" vertex="1">
                    <mxGeometry x="330" y="360" width="60" height="30" as="geometry"/>
                </mxCell>
                <mxCell id="142" value="1:N" style="text;html=1;strokeColor=none;fillColor=none;align=center;verticalAlign=middle;whiteSpace=wrap;rounded=0;fontSize=10;" parent="1" vertex="1">
                    <mxGeometry x="330" y="590" width="60" height="30" as="geometry"/>
                </mxCell>
                <mxCell id="143" value="N:1" style="text;html=1;strokeColor=none;fillColor=none;align=center;verticalAlign=middle;whiteSpace=wrap;rounded=0;fontSize=10;" parent="1" vertex="1">
                    <mxGeometry x="730" y="830" width="60" height="30" as="geometry"/>
                </mxCell>
                <mxCell id="144" value="N:1" style="text;html=1;strokeColor=none;fillColor=none;align=center;verticalAlign=middle;whiteSpace=wrap;rounded=0;fontSize=10;" parent="1" vertex="1">
                    <mxGeometry x="730" y="590" width="60" height="30" as="geometry"/>
                </mxCell>
                <mxCell id="145" value="N:1" style="text;html=1;strokeColor=none;fillColor=none;align=center;verticalAlign=middle;whiteSpace=wrap;rounded=0;fontSize=10;" parent="1" vertex="1">
                    <mxGeometry x="730" y="360" width="60" height="30" as="geometry"/>
                </mxCell>
                <mxCell id="146" value="M:N" style="text;html=1;strokeColor=none;fillColor=none;align=center;verticalAlign=middle;whiteSpace=wrap;rounded=0;fontSize=10;" parent="1" vertex="1">
                    <mxGeometry x="1130" y="830" width="60" height="30" as="geometry"/>
                </mxCell>
                <mxCell id="147" value="M:N" style="text;html=1;strokeColor=none;fillColor=none;align=center;verticalAlign=middle;whiteSpace=wrap;rounded=0;fontSize=10;" parent="1" vertex="1">
                    <mxGeometry x="1130" y="590" width="60" height="30" as="geometry"/>
                </mxCell>
                <mxCell id="148" value="M:N" style="text;html=1;strokeColor=none;fillColor=none;align=center;verticalAlign=middle;whiteSpace=wrap;rounded=0;fontSize=10;" parent="1" vertex="1">
                    <mxGeometry x="1130" y="430" width="60" height="30" as="geometry"/>
                </mxCell>
                <mxCell id="149" value="N:M" style="text;html=1;strokeColor=none;fillColor=none;align=center;verticalAlign=middle;whiteSpace=wrap;rounded=0;fontSize=10;" parent="1" vertex="1">
                    <mxGeometry x="1260" y="275" width="60" height="30" as="geometry"/>
                </mxCell>
                <mxCell id="150" value="Photo" style="ellipse;whiteSpace=wrap;html=1;align=center;fontSize=10;" vertex="1" parent="1">
                    <mxGeometry x="1440" y="90" width="80" height="30" as="geometry"/>
                </mxCell>
            </root>
        </mxGraphModel>
    </diagram>
</mxfile>